# xmcd CD database file
#
# Track frame offsets:
#	150
#	14806
#	34612
#	55732
#	68950
#	85622
#	109288
#	122714
#	149361
#	159952
#	170253
#	178799
#	187283
#	197461
#	211417
#	222712
#	246303
#	264395
#	287497
#
# Disc length: 4171 seconds
#
# Revision: 0
# Processed by: cddbd v1.5.1PL0 Copyright (c) Steve Scherf et al.
# Submitted via: CDex 1.60beta1
#
DISCID=20104913
DTITLE=Herbie Mann - Collectables Jazz Classics
DYEAR=1964
DGENRE=Jazz
TTITLE0=Right Now (Mann)
TTITLE1=Desafinado (Jobim, Mendonca)
TTITLE2=Cahllil (Mann)
TTITLE3=Jumpin' With Symphony Sid (Young)
TTITLE4=Boryuinho (Menescal, Boscoli)
TTITLE5=Cool Heat (Mann)
TTITLE6=Carnival (Bonfa)
TTITLE7=Meditation (Jobim, Mendonca)
TTITLE8=Free For All (Mann)
TTITLE9=Harlem Nocturne (Hagen)
TTITLE10=Fever (Davenport, Cooley)
TTITLE11=Not Now - Later On (Sherman, Meade)
TTITLE12=The Golden Striker (Lewis)
TTITLE13=Insensatez (Jobim)
TTITLE14=You Came A Long Way From St. Louis (Russel, Brooks)
TTITLE15=Batida Differente (Durval, Einhorn)
TTITLE16=Nana (Powell)
TTITLE17=Groovy Samba (Mendes)
TTITLE18=Influenza De Jazz (Lyra)
EXTD=YEAR: 1964
EXTT0=
EXTT1=
EXTT2=
EXTT3=
EXTT4=
EXTT5=
EXTT6=
EXTT7=
EXTT8=
EXTT9=
EXTT10=
EXTT11=
EXTT12=
EXTT13=
EXTT14=
EXTT15=
EXTT16=
EXTT17=
EXTT18=
PLAYORDER=
